<svg xmlns="http://www.w3.org/2000/svg" version="1.1" xmlns:xlink="http://www.w3.org/1999/xlink" xmlns:svgjs="http://svgjs.dev/svgjs" viewBox="0 0 800 800"><defs><filter id="bbburst-blur-1" x="-100%" y="-100%" width="400%" height="400%"><feGaussianBlur in="SourceGraphic" stdDeviation="1"></feGaussianBlur></filter><filter id="bbburst-blur-2" x="-100%" y="-100%" width="400%" height="400%"><feGaussianBlur in="SourceGraphic" stdDeviation="2"></feGaussianBlur></filter><filter id="bbburst-blur-3" x="-100%" y="-100%" width="400%" height="400%"><feGaussianBlur in="SourceGraphic" stdDeviation="4"></feGaussianBlur></filter><filter id="bbburst-blur-4" x="-100%" y="-100%" width="400%" height="400%"><feGaussianBlur in="SourceGraphic" stdDeviation="12"></feGaussianBlur></filter><symbol id="bbburst-shape-1" viewBox="0 0 194 167"><path d="m97 0 96.129 166.5H.871L97 0Z"></path></symbol><symbol id="bbburst-shape-4" viewBox="0 0 149 143"><path d="M71.647 2.781c.898-2.764 4.808-2.764 5.706 0l15.445 47.534a3 3 0 0 0 2.853 2.073h49.98c2.906 0 4.115 3.719 1.764 5.427L106.96 87.193a2.999 2.999 0 0 0-1.09 3.354l15.445 47.534c.898 2.764-2.266 5.062-4.617 3.354l-40.435-29.378a3 3 0 0 0-3.526 0l-40.435 29.378c-2.351 1.708-5.515-.59-4.617-3.354L43.13 90.547a3 3 0 0 0-1.09-3.354L1.605 57.815c-2.35-1.708-1.142-5.427 1.764-5.427h49.98a3 3 0 0 0 2.853-2.073L71.647 2.781Z"></path></symbol><symbol id="bbburst-shape-6" viewBox="0 0 133 116"><path d="M59.7487 10.2513c-13.6683-13.66839-35.8291-13.66839-49.4974 0-13.66839 13.6683-13.66839 35.8291 0 49.4974l49.4974-49.4974ZM66.5 66.5 41.7513 91.2487 66.5 115.997l24.7487-24.7483L66.5 66.5Zm56.249-6.7513c13.668-13.6683 13.668-35.8291 0-49.4974-13.669-13.66839-35.8294-13.66839-49.4977 0l49.4977 49.4974Zm-112.4977 0 31.5 31.5 49.4974-49.4974-31.5-31.5-49.4974 49.4974Zm80.9974 31.5 31.5003-31.5-49.4977-49.4974-31.5 31.5 49.4974 49.4974Z"></path></symbol><symbol id="bbburst-shape-8" viewBox="0 0 87 168"><path d="m12 12 31.2546 18.0749c16.4102 9.4902 20.014 31.6325 7.4603 45.8369L36.3296 92.1884c-12.5684 14.2206-8.9394 36.3916 7.5068 45.8636L75 156" stroke-width="14" stroke-linecap="round" stroke-linejoin="round"></path></symbol><symbol id="bbburst-shape-10" viewBox="0 0 145 145"><circle cx="72.5" cy="72.5" r="61.5" fill="none" stroke-width="22"></circle></symbol></defs><use xlink:href="#bbburst-shape-4" width="31.07763372284158" opacity="0.3883043905203599" transform="matrix(0.786039158724546,-0.618176706898285,0.618176706898285,0.786039158724546,203.46357850913836,363.1850760129267)" fill="#2c2891" filter="url(#bbburst-blur-2)"></use><use xlink:href="#bbburst-shape-1" width="11.112158658724896" opacity="0.9520418063611705" transform="matrix(0.9698624917219978,-0.24365292354248025,0.24365292354248025,0.9698624917219978,305.89763463231367,-6.307791694856007)" fill="#2c2891"></use><use xlink:href="#bbburst-shape-4" width="9.31053483134554" opacity="0.9279178181391251" transform="matrix(0.9999803596082664,-0.006267407575891678,0.006267407575891678,0.9999803596082664,363.17868790306386,13.178984445961362)" fill="#ffa6d5"></use><use xlink:href="#bbburst-shape-4" width="15.687913098558202" opacity="0.8209716642632873" transform="matrix(0.9626483148152833,-0.27075491128194706,0.27075491128194706,0.9626483148152833,306.14437787265115,94.58073016223307)" fill="#ff5c58"></use><use xlink:href="#bbburst-shape-4" width="36.65547831881296" opacity="0.33827118120915045" transform="matrix(0.9255834759657866,-0.378543562908012,0.378543562908012,0.9255834759657866,-65.51613774714248,17.366666314105373)" fill="#ffa6d5" filter="url(#bbburst-blur-2)"></use><use xlink:href="#bbburst-shape-6" width="32.24787225604466" opacity="0.2839131419682577" transform="matrix(1.2452962070647273,-0.10833908191508616,0.10833908191508616,1.2452962070647273,32.47273261504156,-202.92429411854312)" fill="#2c2891" filter="url(#bbburst-blur-3)"></use><use xlink:href="#bbburst-shape-8" width="29.190102455181155" opacity="0.23866792059951936" transform="matrix(1.2407469206296953,-0.15181264422942103,0.15181264422942103,1.2407469206296953,171.17766507813388,213.93937786444502)" fill="none" stroke="#00a19d" filter="url(#bbburst-blur-3)"></use><use xlink:href="#bbburst-shape-8" width="33.72981447506173" opacity="0.18916315562148467" transform="matrix(1.117682742746445,0.5597189353298525,-0.5597189353298525,1.117682742746445,399.4138915838655,-357.9321086049317)" fill="none" stroke="#00a19d" filter="url(#bbburst-blur-3)"></use><use xlink:href="#bbburst-shape-1" width="20.834540728049568" opacity="0.8181746238654856" transform="matrix(0.99830029167021,0.05827973619684497,-0.05827973619684497,0.99830029167021,492.08093845094027,-20.5603236817538)" fill="#2c2891"></use><use xlink:href="#bbburst-shape-10" width="17.387339402234065" opacity="0.7956705893621083" transform="matrix(0.999195638460782,0.040100823943532954,-0.040100823943532954,0.999195638460782,332.3167127018207,53.113809047794916)" fill="none" stroke="#ffbd9b"></use><use xlink:href="#bbburst-shape-4" width="33.77377601955839" opacity="0.1868851073187343" transform="matrix(0.9095199767286609,-0.8574808522244075,0.8574808522244075,0.9095199767286609,42.01335615398352,-315.20140444833163)" fill="#00a19d" filter="url(#bbburst-blur-3)"></use><use xlink:href="#bbburst-shape-8" width="22.085224580920706" opacity="0.6801262898927627" transform="matrix(0.9582181447191381,0.2860384364574327,-0.2860384364574327,0.9582181447191381,366.49067620961796,56.64015154380763)" fill="none" stroke="#00a19d" filter="url(#bbburst-blur-1)"></use><use xlink:href="#bbburst-shape-10" width="24.97382915079403" opacity="0.44950789673332003" transform="matrix(0.7969463662199228,-0.6040500719053519,0.6040500719053519,0.7969463662199228,377.0992842211043,-6.501905483534983)" fill="none" stroke="#2c2891" filter="url(#bbburst-blur-2)"></use><use xlink:href="#bbburst-shape-10" width="51.77520106836429" opacity="0.17595802545693062" transform="matrix(0.8878748557961452,0.8798739912311161,-0.8798739912311161,0.8878748557961452,458.08265113530234,275.31044421502304)" fill="none" stroke="#00a19d" filter="url(#bbburst-blur-3)"></use><use xlink:href="#bbburst-shape-10" width="32.46067311012802" opacity="0.3634402336699626" transform="matrix(0.8910341083676929,-0.4539363586730969,0.4539363586730969,0.8910341083676929,33.56642609490672,281.21347490156097)" fill="none" stroke="#00a19d" filter="url(#bbburst-blur-2)"></use><use xlink:href="#bbburst-shape-6" width="30.414828315785737" opacity="0.3344497143883709" transform="matrix(0.9574740444635542,-0.2885194173337451,0.2885194173337451,0.9574740444635542,510.9374454654311,-156.54328094055654)" fill="#ff5c58" filter="url(#bbburst-blur-2)"></use><use xlink:href="#bbburst-shape-4" width="15.552426619522787" opacity="0.728152493758667" transform="matrix(0.9938023814159306,-0.11116126435060543,0.11116126435060543,0.9938023814159306,449.6945467951351,-64.35003126634041)" fill="#ffa6d5" filter="url(#bbburst-blur-1)"></use><use xlink:href="#bbburst-shape-10" width="19.03024504847843" opacity="0.7794315958772957" transform="matrix(0.9945812093726201,0.10396257962794316,-0.10396257962794316,0.9945812093726201,505.432663055301,68.0900537416968)" fill="none" stroke="#00a19d"></use><use xlink:href="#bbburst-shape-8" width="41.38381377122317" opacity="0.29444011434266837" transform="matrix(1.1861731808076699,-0.3943262420035157,0.3943262420035157,1.1861731808076699,515.2828718067841,44.4465521879892)" fill="none" stroke="#ffa6d5" filter="url(#bbburst-blur-3)"></use><use xlink:href="#bbburst-shape-10" width="16.470232948002415" opacity="0.7796152380055024" transform="matrix(0.9737344124988556,0.22768683298668896,-0.22768683298668896,0.9737344124988556,579.2063901443679,32.929396705500665)" fill="none" stroke="#ffbd9b"></use><use xlink:href="#bbburst-shape-10" width="13.830031378316047" opacity="0.8880834369015059" transform="matrix(0.8882052894017396,0.4594468020116932,-0.4594468020116932,0.8882052894017396,627.1920134410304,50.521660115835346)" fill="none" stroke="#2c2891"></use><use xlink:href="#bbburst-shape-4" width="16.913307495428164" opacity="0.8057858316847014" transform="matrix(0.9973323686255672,-0.07299415381875257,0.07299415381875257,0.9973323686255672,417.5706094552478,-66.0568751065278)" fill="#00a19d"></use><use xlink:href="#bbburst-shape-10" width="34.900271463266115" opacity="0.5124712930424151" transform="matrix(0.9265212312778066,-0.3762424856278956,0.3762424856278956,0.9265212312778066,446.89347509972566,86.19510039813161)" fill="none" stroke="#ff5c58" filter="url(#bbburst-blur-2)"></use><use xlink:href="#bbburst-shape-10" width="20.249281761257564" opacity="0.7036280435242374" transform="matrix(0.9324665425232657,0.3612563453763918,-0.3612563453763918,0.9324665425232657,568.8505407928702,152.37194448609733)" fill="none" stroke="#ffa6d5" filter="url(#bbburst-blur-1)"></use><use xlink:href="#bbburst-shape-6" width="33.09042363245982" opacity="0.2870186958854787" transform="matrix(1.2423708249769227,-0.1378939202654002,0.1378939202654002,1.2423708249769227,574.637780444553,105.99230717277942)" fill="#ffbd9b" filter="url(#bbburst-blur-3)"></use><use xlink:href="#bbburst-shape-4" width="18.2315297268583" opacity="0.8774975945887019" transform="matrix(0.91793003779103,-0.39674229131888394,0.39674229131888394,0.91793003779103,181.72993787067955,16.05859416935789)" fill="#00a19d"></use><use xlink:href="#bbburst-shape-4" width="17.49859217732926" opacity="0.6917342217136102" transform="matrix(0.7730018030289956,0.634403824479268,-0.634403824479268,0.7730018030289956,728.0339943143915,197.84295704362876)" fill="#ffa6d5" filter="url(#bbburst-blur-1)"></use><use xlink:href="#bbburst-shape-4" width="27.137045682944937" opacity="0.5500735758679078" transform="matrix(0.9280045714901329,-0.37256880611964127,0.37256880611964127,0.9280045714901329,101.70116819944994,-115.48576611164304)" fill="#ffa6d5" filter="url(#bbburst-blur-2)"></use><use xlink:href="#bbburst-shape-4" width="43.57270472640728" opacity="-0.060288995644598664" transform="matrix(1.7440940921986396,-0.14365165351572726,0.14365165351572726,1.7440940921986396,-56.30840116470423,-606.5866101438385)" fill="#ffbd9b" filter="url(#bbburst-blur-4)"></use><use xlink:href="#bbburst-shape-8" width="27.156573508066394" opacity="0.6065327476855711" transform="matrix(0.9161311508396959,-0.40087867798267135,0.40087867798267135,0.9161311508396959,293.5023218064777,-125.19062085026516)" fill="none" stroke="#00a19d" filter="url(#bbburst-blur-1)"></use><use xlink:href="#bbburst-shape-10" width="21.577209342740595" opacity="0.5713605092472557" transform="matrix(0.9097490766731459,-0.41515854500703525,0.41515854500703525,0.9097490766731459,384.2276861992258,-66.99273536934419)" fill="none" stroke="#2c2891" filter="url(#bbburst-blur-1)"></use><use xlink:href="#bbburst-shape-8" width="28.445391257863633" opacity="0.284093993992686" transform="matrix(1.1645958120669104,0.4541107733980925,-0.4541107733980925,1.1645958120669104,484.1078319749117,-384.11264725756354)" fill="none" stroke="#2c2891" filter="url(#bbburst-blur-3)"></use><use xlink:href="#bbburst-shape-10" width="24.7956144117979" opacity="0.4711888000087927" transform="matrix(0.7187920207855115,-0.6952251655795271,0.6952251655795271,0.7187920207855115,-119.6756329422856,71.20144407497423)" fill="none" stroke="#00a19d" filter="url(#bbburst-blur-2)"></use><use xlink:href="#bbburst-shape-6" width="25.56482052637795" opacity="0.18408213098085313" transform="matrix(0.9782756153232981,0.7781239107390431,-0.7781239107390431,0.9782756153232981,1062.0995082060217,51.487746898274054)" fill="#ffbd9b" filter="url(#bbburst-blur-3)"></use><use xlink:href="#bbburst-shape-8" width="22.352524316043063" opacity="0.12514111067356481" transform="matrix(0.9909199500529029,-0.7619564637084935,0.7619564637084935,0.9909199500529029,-59.5535198252573,-354.37702310573525)" fill="none" stroke="#00a19d" filter="url(#bbburst-blur-3)"></use><use xlink:href="#bbburst-shape-8" width="44.92962990390734" opacity="0.36640329918472336" transform="matrix(0.998015581706098,0.06296744136328516,-0.06296744136328516,0.998015581706098,166.30584986945334,158.68649109244814)" fill="none" stroke="#ffa6d5" filter="url(#bbburst-blur-2)"></use><use xlink:href="#bbburst-shape-6" width="15.392826029863166" opacity="0.9026537664857984" transform="matrix(0.9512671228647646,0.3083680608568158,-0.3083680608568158,0.9512671228647646,517.90500497478,60.885467055626975)" fill="#ff5c58"></use><use xlink:href="#bbburst-shape-8" width="54.17502494247295" opacity="-0.0758468748278156" transform="matrix(1.5712714716498724,0.7704582807519459,-0.7704582807519459,1.5712714716498724,318.2242812074944,87.81309852819004)" fill="none" stroke="#2c2891" filter="url(#bbburst-blur-4)"></use><use xlink:href="#bbburst-shape-1" width="22.670519428738075" opacity="0.6139788924550543" transform="matrix(0.9950416615944447,-0.0994589950249168,0.0994589950249168,0.9950416615944447,345.30113391703685,-170.53158684913728)" fill="#ffa6d5" filter="url(#bbburst-blur-1)"></use><use xlink:href="#bbburst-shape-1" width="12.941193293839484" opacity="0.8691002323061363" transform="matrix(0.9959607022513844,0.08979019752138402,-0.08979019752138402,0.9959607022513844,471.1894433273484,42.63598740563606)" fill="#ffbd9b"></use><use xlink:href="#bbburst-shape-10" width="13.852447747034406" opacity="0.8959277223788709" transform="matrix(0.8561026524933546,-0.5168058130418451,0.5168058130418451,0.8561026524933546,225.5926682044338,34.108063692319206)" fill="none" stroke="#00a19d"></use><use xlink:href="#bbburst-shape-6" width="31.840821919729276" opacity="0.18347885254065244" transform="matrix(1.1947490708111452,-0.36752504376695894,0.36752504376695894,1.1947490708111452,-133.45284346886518,-75.07150116821327)" fill="#00a19d" filter="url(#bbburst-blur-3)"></use><use xlink:href="#bbburst-shape-4" width="27.923853834708844" opacity="0.16516266075867947" transform="matrix(1.1060831602889745,0.5823057981208456,-0.5823057981208456,1.1060831602889745,984.5010397387048,-130.64275534842125)" fill="#ff5c58" filter="url(#bbburst-blur-3)"></use><use xlink:href="#bbburst-shape-10" width="21.026338314495845" opacity="0.792025206899424" transform="matrix(0.9850117828552707,-0.1724870651274498,0.1724870651274498,0.9850117828552707,232.64132680879507,-24.024977648793765)" fill="none" stroke="#2c2891"></use><use xlink:href="#bbburst-shape-1" width="21.70499461469013" opacity="0.6904078822833224" transform="matrix(0.9953242006127436,0.09659055686040409,-0.09659055686040409,0.9953242006127436,312.5028516975079,-77.3058060584305)" fill="#2c2891" filter="url(#bbburst-blur-1)"></use><use xlink:href="#bbburst-shape-10" width="21.229369785715523" opacity="0.7785309210206037" transform="matrix(0.9994772299601596,0.03233058600097121,-0.03233058600097121,0.9994772299601596,303.4441399335283,12.327333365996822)" fill="none" stroke="#2c2891"></use><use xlink:href="#bbburst-shape-4" width="37.58355498947881" opacity="0.11255088212662578" transform="matrix(0.9262617385013429,0.8393683290358709,-0.8393683290358709,0.9262617385013429,355.2519340240752,-152.58674027050074)" fill="#00a19d" filter="url(#bbburst-blur-3)"></use><use xlink:href="#bbburst-shape-6" width="17.891226947092328" opacity="0.8622173935197321" transform="matrix(0.9158039163100162,0.401625680044537,-0.401625680044537,0.9158039163100162,567.1776792060818,-30.14367785793189)" fill="#00a19d"></use><use xlink:href="#bbburst-shape-6" width="25.539485757368567" opacity="0.6157940386843093" transform="matrix(0.8966431939815994,-0.4427538624184727,0.4427538624184727,0.8966431939815994,131.62641768253152,200.36008056980592)" fill="#ffa6d5" filter="url(#bbburst-blur-1)"></use><use xlink:href="#bbburst-shape-10" width="47.39751943230819" opacity="-0.07993517030711872" transform="matrix(1.4965515894914274,-0.9071016150303571,0.9071016150303571,1.4965515894914274,345.1995096791028,166.63646858411084)" fill="none" stroke="#ffbd9b" filter="url(#bbburst-blur-4)"></use><use xlink:href="#bbburst-shape-10" width="44.50736254587277" opacity="0.12816699365530426" transform="matrix(0.9786429226073088,0.7776618995621588,-0.7776618995621588,0.9786429226073088,950.0082293103928,284.3971415082364)" fill="none" stroke="#00a19d" filter="url(#bbburst-blur-3)"></use><use xlink:href="#bbburst-shape-1" width="14.97026780700595" opacity="0.9616454756119887" transform="matrix(0.9519928741982505,-0.30612018469182,0.30612018469182,0.9519928741982505,282.05043088072625,34.275957365967145)" fill="#00a19d"></use><use xlink:href="#bbburst-shape-6" width="33.3064077197747" opacity="0.05721322456043054" transform="matrix(1.7300632995805767,0.26340269445160897,-0.26340269445160897,1.7300632995805767,246.1089196360508,59.802905312346866)" fill="#ff5c58" filter="url(#bbburst-blur-4)"></use><use xlink:href="#bbburst-shape-1" width="25.386897364473533" opacity="0.5155168998006212" transform="matrix(0.7937092839844566,-0.6082972731460179,0.6082972731460179,0.7937092839844566,-59.227873862910116,162.0670794112022)" fill="#ff5c58" filter="url(#bbburst-blur-2)"></use><use xlink:href="#bbburst-shape-10" width="8.25722180711062" opacity="0.9600561544767918" transform="matrix(0.7711804118931926,0.6366166604105218,-0.6366166604105218,0.7711804118931926,634.5594740522588,82.78640698070018)" fill="none" stroke="#2c2891"></use><use xlink:href="#bbburst-shape-1" width="47.819202783566965" opacity="0.10409979664540514" transform="matrix(1.6976397985666813,-0.42487541035282006,0.42487541035282006,1.6976397985666813,535.4423036509728,-475.79115792486226)" fill="#2c2891" filter="url(#bbburst-blur-4)"></use><use xlink:href="#bbburst-shape-4" width="29.89979929851527" opacity="0.47118860096081205" transform="matrix(0.8806386501210774,0.4737885265737516,-0.4737885265737516,0.8806386501210774,496.95210880103,265.01864283060036)" fill="#00a19d" filter="url(#bbburst-blur-2)"></use><use xlink:href="#bbburst-shape-10" width="13.881335479724735" opacity="0.7833368264148874" transform="matrix(0.8589713131436135,-0.5120237135097712,0.5120237135097712,0.8589713131436135,184.0000865189496,-37.39287622694877)" fill="none" stroke="#2c2891"></use><use xlink:href="#bbburst-shape-1" width="28.034134553656013" opacity="0.5514269223844211" transform="matrix(0.8387671923050816,0.5444902176464242,-0.5444902176464242,0.8387671923050816,528.9700420312203,-129.68311617705925)" fill="#ffa6d5" filter="url(#bbburst-blur-2)"></use><use xlink:href="#bbburst-shape-6" width="32.49555554287986" opacity="0.08522033553487429" transform="matrix(1.4582717927160445,0.967441666752437,-0.967441666752437,1.4582717927160445,954.282867815821,165.63082674475402)" fill="#ffa6d5" filter="url(#bbburst-blur-4)"></use><use xlink:href="#bbburst-shape-4" width="42.71667072034145" opacity="0.3442102784475348" transform="matrix(0.7209679688924081,-0.6929683887675943,0.6929683887675943,0.7209679688924081,245.12667079483367,-134.57533614733717)" fill="#ffa6d5" filter="url(#bbburst-blur-2)"></use><use xlink:href="#bbburst-shape-10" width="43.798039583405" opacity="0.15662129128511193" transform="matrix(1.1096401477287872,0.5754986903099218,-0.5754986903099218,1.1096401477287872,739.4348386739707,-411.7110024180831)" fill="none" stroke="#00a19d" filter="url(#bbburst-blur-3)"></use><use xlink:href="#bbburst-shape-8" width="30.499265274565772" opacity="0.4435089555663918" transform="matrix(0.9741022787928526,-0.2261078292553612,0.2261078292553612,0.9741022787928526,256.2575555457993,-233.64521627762144)" fill="none" stroke="#ffa6d5" filter="url(#bbburst-blur-2)"></use><use xlink:href="#bbburst-shape-4" width="30.899538517686054" opacity="0.3399936877847104" transform="matrix(0.9251661277185564,-0.3795624271740444,0.3795624271740444,0.9251661277185564,199.36973858179044,330.81331480108986)" fill="#2c2891" filter="url(#bbburst-blur-2)"></use><use xlink:href="#bbburst-shape-6" width="20.243791011071245" opacity="0.6874719873565601" transform="matrix(0.8077682347055212,-0.5895001942329842,0.5895001942329842,0.8077682347055212,74.93842773655888,-32.04925896811818)" fill="#ffa6d5" filter="url(#bbburst-blur-1)"></use><use xlink:href="#bbburst-shape-4" width="11.305777883386687" opacity="0.8295499833023056" transform="matrix(0.9779549469678913,0.20881599962892908,-0.20881599962892908,0.9779549469678913,448.7824628203539,-63.273765610076964)" fill="#ff5c58"></use><use xlink:href="#bbburst-shape-6" width="25.916737374886637" opacity="0.5554187964903377" transform="matrix(0.8627724848212748,0.5055923648902575,-0.5055923648902575,0.8627724848212748,788.7004312657571,17.330445672906535)" fill="#ffbd9b" filter="url(#bbburst-blur-2)"></use><use xlink:href="#bbburst-shape-1" width="41.19680843709322" opacity="0.4073985044557288" transform="matrix(0.9728029542210436,-0.23163422082846508,0.23163422082846508,0.9728029542210436,69.535846379469,-138.19147376562634)" fill="#ff5c58" filter="url(#bbburst-blur-2)"></use><use xlink:href="#bbburst-shape-6" width="16.247882501221127" opacity="0.8245362768894808" transform="matrix(0.8832120586606698,0.4689738366224514,-0.4689738366224514,0.8832120586606698,547.7749587022588,114.80220007743446)" fill="#ffa6d5"></use><use xlink:href="#bbburst-shape-6" width="39.74228069622324" opacity="0.19457985438574432" transform="matrix(1.2476515468871223,0.07658731977403875,-0.07658731977403875,1.2476515468871223,459.8936682503058,257.8041240759657)" fill="#ffa6d5" filter="url(#bbburst-blur-3)"></use><use xlink:href="#bbburst-shape-6" width="31.31582910561687" opacity="0.30624930118870664" transform="matrix(1.168740295990989,-0.44333522364785694,0.44333522364785694,1.168740295990989,503.50427200251056,-149.87116121269457)" fill="#ffa6d5" filter="url(#bbburst-blur-3)"></use><use xlink:href="#bbburst-shape-10" width="37.62237705438383" opacity="0.19757185450729686" transform="matrix(0.9724687551873402,0.7853690343936314,-0.7853690343936314,0.9724687551873402,417.2646808019018,-233.4909260284025)" fill="none" stroke="#00a19d" filter="url(#bbburst-blur-3)"></use><use xlink:href="#bbburst-shape-6" width="32.268039346804265" opacity="0.32494150417309686" transform="matrix(1.2483251422715944,-0.06468646823411517,0.06468646823411517,1.2483251422715944,399.15344447366215,-398.6854711241065)" fill="#2c2891" filter="url(#bbburst-blur-3)"></use><use xlink:href="#bbburst-shape-6" width="27.603258682151022" opacity="0.5168000027484986" transform="matrix(0.9746489381750352,0.22373968649811862,-0.22373968649811862,0.9746489381750352,332.10973922953167,170.03457034982438)" fill="#ffa6d5" filter="url(#bbburst-blur-2)"></use><use xlink:href="#bbburst-shape-4" width="24.997312320412572" opacity="0.5753273425234036" transform="matrix(0.989555535174002,0.1441521515846866,-0.1441521515846866,0.989555535174002,578.592272692426,139.33134294622084)" fill="#2c2891" filter="url(#bbburst-blur-1)"></use><use xlink:href="#bbburst-shape-8" width="26.803086119730388" opacity="0.48868790541425655" transform="matrix(0.8885711613216052,0.4587388050596699,-0.4587388050596699,0.8885711613216052,620.53443145185,-186.40018270785694)" fill="none" stroke="#ffbd9b" filter="url(#bbburst-blur-2)"></use><use xlink:href="#bbburst-shape-4" width="18.58221654119935" opacity="0.6660600187241414" transform="matrix(0.9545684887310149,0.2979916111600901,-0.2979916111600901,0.9545684887310149,604.9229702566932,-101.33929586459931)" fill="#2c2891" filter="url(#bbburst-blur-1)"></use><use xlink:href="#bbburst-shape-4" width="36.22291605871442" opacity="0.20005927921811495" transform="matrix(1.2491449526517397,-0.04622647796104654,0.04622647796104654,1.2491449526517397,598.9434121757793,-367.02159865516904)" fill="#2c2891" filter="url(#bbburst-blur-3)"></use><use xlink:href="#bbburst-shape-6" width="14.712653275383385" opacity="0.7278738823473787" transform="matrix(0.9185997213243879,-0.395189260965878,0.395189260965878,0.9185997213243879,182.61293161374812,146.07367784773214)" fill="#ffa6d5" filter="url(#bbburst-blur-1)"></use><use xlink:href="#bbburst-shape-10" width="30.78397145617342" opacity="-0.013070004144842384" transform="matrix(1.6162771132057931,0.6709309154653312,-0.6709309154653312,1.6162771132057931,362.0695791448848,-615.485112008718)" fill="none" stroke="#ffbd9b" filter="url(#bbburst-blur-4)"></use><use xlink:href="#bbburst-shape-6" width="20.094272601450278" opacity="0.584950906876689" transform="matrix(0.9518414489036695,-0.30659069807964345,0.30659069807964345,0.9518414489036695,112.93064136331517,126.74295715019275)" fill="#2c2891" filter="url(#bbburst-blur-1)"></use><use xlink:href="#bbburst-shape-8" width="29.396974867740454" opacity="0.4259270531792444" transform="matrix(0.9306266167985185,-0.36597008088933086,0.36597008088933086,0.9306266167985185,395.1138437080683,239.65895458561874)" fill="none" stroke="#ffa6d5" filter="url(#bbburst-blur-2)"></use><use xlink:href="#bbburst-shape-4" width="39.253384753896114" opacity="0.031812810086557675" transform="matrix(1.6061138678929363,-0.6949088021906122,0.6949088021906122,1.6061138678929363,339.3525216364177,-586.3978065947896)" fill="#ffbd9b" filter="url(#bbburst-blur-4)"></use><use xlink:href="#bbburst-shape-4" width="25.421497093624932" opacity="0.37851409215961096" transform="matrix(0.7906160087210674,0.6123122787875229,-0.6123122787875229,0.7906160087210674,361.6035764406996,135.52632517927094)" fill="#2c2891" filter="url(#bbburst-blur-2)"></use><use xlink:href="#bbburst-shape-10" width="24.605574963224303" opacity="0.577163990842851" transform="matrix(0.9624136514403799,0.2715878559899079,-0.2715878559899079,0.9624136514403799,306.54329871590016,14.761675116654146)" fill="none" stroke="#00a19d" filter="url(#bbburst-blur-1)"></use><use xlink:href="#bbburst-shape-6" width="44.16336478627427" opacity="0.08728521076373719" transform="matrix(1.7109135657399817,-0.3677971867305426,0.3677971867305426,1.7109135657399817,569.9854543506176,-69.48323107887995)" fill="#ffbd9b" filter="url(#bbburst-blur-4)"></use><use xlink:href="#bbburst-shape-10" width="13.562716599823123" opacity="0.7988096044462476" transform="matrix(0.9326063337265418,-0.36089531209637266,0.36089531209637266,0.9326063337265418,186.41383865860453,-35.70917388538953)" fill="none" stroke="#ff5c58"></use><use xlink:href="#bbburst-shape-10" width="24.001463373905235" opacity="0.7000650680671237" transform="matrix(0.9718102975572467,-0.2357641736178243,0.2357641736178243,0.9718102975572467,195.19194571472846,106.01694052051721)" fill="none" stroke="#00a19d" filter="url(#bbburst-blur-1)"></use><use xlink:href="#bbburst-shape-4" width="29.0859933130826" opacity="0.48469376509951634" transform="matrix(0.9975909576733091,-0.06937060738129683,0.06937060738129683,0.9975909576733091,501.7111436791635,-179.7864071339158)" fill="#2c2891" filter="url(#bbburst-blur-2)"></use><use xlink:href="#bbburst-shape-6" width="35.10043476617163" opacity="0.27918551027840466" transform="matrix(1.0502449220749086,0.6778536742217078,-0.6778536742217078,1.0502449220749086,802.1873312204423,255.87735052278072)" fill="#ffa6d5" filter="url(#bbburst-blur-3)"></use><use xlink:href="#bbburst-shape-4" width="17.84688978049441" opacity="0.7605811338877713" transform="matrix(0.9992170771966967,-0.03956302109913497,0.03956302109913497,0.9992170771966967,365.82217832575844,108.00681417858323)" fill="#2c2891" filter="url(#bbburst-blur-1)"></use><use xlink:href="#bbburst-shape-6" width="21.332779657009777" opacity="0.6382292758219261" transform="matrix(0.9388360520586966,-0.34436443973621955,0.34436443973621955,0.9388360520586966,237.53308141975327,190.27006952522765)" fill="#ffbd9b" filter="url(#bbburst-blur-1)"></use><use xlink:href="#bbburst-shape-4" width="38.99900768166143" opacity="0.3747943820377254" transform="matrix(0.988882593588437,0.14869840650728655,-0.14869840650728655,0.988882593588437,721.5144718681372,4.884641268817347)" fill="#2c2891" filter="url(#bbburst-blur-2)"></use><use xlink:href="#bbburst-shape-1" width="24.928653839045428" opacity="0.6510396604686504" transform="matrix(0.9580645265275461,-0.2865525484261984,0.2865525484261984,0.9580645265275461,411.7674538243462,94.71654828439165)" fill="#ffa6d5" filter="url(#bbburst-blur-1)"></use><use xlink:href="#bbburst-shape-6" width="11.98878600855713" opacity="0.9061555005789357" transform="matrix(0.8195863543893571,0.5729556769059568,-0.5729556769059568,0.8195863543893571,604.9128668264465,31.19832743206524)" fill="#2c2891"></use><use xlink:href="#bbburst-shape-4" width="36.62326634174534" opacity="0.5593280485109294" transform="matrix(0.9643237344272108,0.2647257736231181,-0.2647257736231181,0.9643237344272108,561.4264932863202,193.75120716761592)" fill="#ffa6d5" filter="url(#bbburst-blur-1)"></use><use xlink:href="#bbburst-shape-4" width="24.54726010951938" opacity="0.5714367731759173" transform="matrix(0.9620659502301951,0.27281698518910386,-0.27281698518910386,0.9620659502301951,323.3108805149535,-71.31499431735216)" fill="#00a19d" filter="url(#bbburst-blur-1)"></use><use xlink:href="#bbburst-shape-1" width="24.768504636284895" opacity="0.1679349019073798" transform="matrix(1.215266982233609,0.2926194831053067,-0.2926194831053067,1.215266982233609,422.13598938010887,276.12352829584967)" fill="#ffa6d5" filter="url(#bbburst-blur-3)"></use><use xlink:href="#bbburst-shape-10" width="47.212268795712895" opacity="-0.07470735930217165" transform="matrix(1.5381278145241648,0.8346633010903957,-0.8346633010903957,1.5381278145241648,1048.6252148832998,-567.575883820454)" fill="none" stroke="#00a19d" filter="url(#bbburst-blur-4)"></use><use xlink:href="#bbburst-shape-10" width="30.26066823262379" opacity="0.20351137321861335" transform="matrix(1.2454065952378637,0.10706265706600052,-0.10706265706600052,1.2454065952378637,83.58566993580705,12.446722039940937)" fill="none" stroke="#ffa6d5" filter="url(#bbburst-blur-3)"></use><use xlink:href="#bbburst-shape-10" width="19.351188679773806" opacity="0.7344095789510786" transform="matrix(0.9831634779170241,-0.1827281469563495,0.1827281469563495,0.9831634779170241,350.0699702325693,-106.46005254716482)" fill="none" stroke="#ffa6d5" filter="url(#bbburst-blur-1)"></use><use xlink:href="#bbburst-shape-10" width="21.98170446872151" opacity="0.6622450739309673" transform="matrix(0.9321597252696242,-0.36204729882331493,0.36204729882331493,0.9321597252696242,395.87764201735354,48.93245115543499)" fill="none" stroke="#ffbd9b" filter="url(#bbburst-blur-1)"></use><use xlink:href="#bbburst-shape-6" width="18.363602981659184" opacity="0.702997504321974" transform="matrix(0.9994592543746544,-0.032881588235058,0.032881588235058,0.9994592543746544,341.1112857036461,-128.03525285640228)" fill="#2c2891" filter="url(#bbburst-blur-1)"></use><use xlink:href="#bbburst-shape-6" width="16.2089438221496" opacity="0.8594157435219689" transform="matrix(0.8947301664554063,-0.4466071307476863,0.4466071307476863,0.8947301664554063,152.79584790501167,61.3247176637114)" fill="#ff5c58"></use><use xlink:href="#bbburst-shape-10" width="25.119716148060895" opacity="0.5127312973916366" transform="matrix(0.997931783537537,-0.0642818435142487,0.0642818435142487,0.997931783537537,365.7777783849631,220.86863914538236)" fill="none" stroke="#ff5c58" filter="url(#bbburst-blur-2)"></use><use xlink:href="#bbburst-shape-1" width="45.2168568456225" opacity="0.08241010792010295" transform="matrix(1.6747385003967696,-0.5076917916302951,0.5076917916302951,1.6747385003967696,-198.4209902750988,-51.71540475174777)" fill="#ffa6d5" filter="url(#bbburst-blur-4)"></use><use xlink:href="#bbburst-shape-6" width="21.622028804297457" opacity="0.692304178213317" transform="matrix(0.7591612144471708,0.650902642857668,-0.650902642857668,0.7591612144471708,515.8357559453672,65.01959739438416)" fill="#ffbd9b" filter="url(#bbburst-blur-1)"></use><use xlink:href="#bbburst-shape-4" width="29.129215739257273" opacity="0.3834183883615805" transform="matrix(0.756250970606657,-0.6542816438327528,0.6542816438327528,0.756250970606657,-25.12103106938386,-124.80409104663386)" fill="#ff5c58" filter="url(#bbburst-blur-2)"></use><use xlink:href="#bbburst-shape-8" width="16.520995729522088" opacity="0.6959686783256532" transform="matrix(0.7906786018362109,-0.6122314501872104,0.6122314501872104,0.7906786018362109,280.9520226810866,54.221603549902056)" fill="none" stroke="#ffbd9b" filter="url(#bbburst-blur-1)"></use><use xlink:href="#bbburst-shape-6" width="12.656739969109442" opacity="0.8860027051955167" transform="matrix(0.9961056681448323,-0.08816744234544502,0.08816744234544502,0.9961056681448323,326.72268486701887,42.44267517867337)" fill="#2c2891"></use><use xlink:href="#bbburst-shape-8" width="27.654808973002627" opacity="0.4627867603851369" transform="matrix(0.9023282852794846,0.43104949319606567,-0.43104949319606567,0.9023282852794846,766.1980373396221,159.20337232142475)" fill="none" stroke="#ff5c58" filter="url(#bbburst-blur-2)"></use></svg>