<svg xmlns="http://www.w3.org/2000/svg" version="1.1" xmlns:xlink="http://www.w3.org/1999/xlink" xmlns:svgjs="http://svgjs.dev/svgjs" viewBox="0 0 800 800" opacity="0.48" width="800" height="800"><g stroke-width="0.5" stroke="hsla(37, 91%, 55%, 1.00)" fill="none"><rect width="80" height="61.53846153846154" x="0" y="0" opacity="0.15"></rect><circle r="3.75" cx="0" cy="0" fill="hsla(37, 91%, 55%, 1.00)" stroke="none"></circle><rect width="80" height="61.53846153846154" x="80" y="0" opacity="0.15"></rect><circle r="3.75" cx="80" cy="0" fill="hsla(37, 91%, 55%, 1.00)" stroke="none"></circle><rect width="80" height="61.53846153846154" x="160" y="0" opacity="0.15"></rect><circle r="3.75" cx="160" cy="0" fill="hsla(37, 91%, 55%, 1.00)" stroke="none"></circle><rect width="80" height="61.53846153846154" x="240" y="0" opacity="0.15"></rect><circle r="3.75" cx="240" cy="0" fill="hsla(37, 91%, 55%, 1.00)" stroke="none"></circle><rect width="80" height="61.53846153846154" x="320" y="0" opacity="0.15"></rect><circle r="3.75" cx="320" cy="0" fill="hsla(37, 91%, 55%, 1.00)" stroke="none"></circle><rect width="80" height="61.53846153846154" x="400" y="0" opacity="0.15"></rect><circle r="3.75" cx="400" cy="0" fill="hsla(37, 91%, 55%, 1.00)" stroke="none"></circle><rect width="80" height="61.53846153846154" x="480" y="0" opacity="0.15"></rect><circle r="3.75" cx="480" cy="0" fill="hsla(37, 91%, 55%, 1.00)" stroke="none"></circle><rect width="80" height="61.53846153846154" x="560" y="0" opacity="0.15"></rect><circle r="3.75" cx="560" cy="0" fill="hsla(37, 91%, 55%, 1.00)" stroke="none"></circle><rect width="80" height="61.53846153846154" x="640" y="0" opacity="0.15"></rect><circle r="3.75" cx="640" cy="0" fill="hsla(37, 91%, 55%, 1.00)" stroke="none"></circle><rect width="80" height="61.53846153846154" x="720" y="0" opacity="0.15"></rect><circle r="3.75" cx="720" cy="0" fill="hsla(37, 91%, 55%, 1.00)" stroke="none"></circle><rect width="80" height="61.53846153846154" x="800" y="0" opacity="0.15"></rect><circle r="3.75" cx="800" cy="0" fill="hsla(37, 91%, 55%, 1.00)" stroke="none"></circle><rect width="80" height="61.53846153846154" x="0" y="61.53846153846154" opacity="0.15"></rect><circle r="3.75" cx="0" cy="61.53846153846154" fill="hsla(37, 91%, 55%, 1.00)" stroke="none"></circle><rect width="80" height="61.53846153846154" x="80" y="61.53846153846154" opacity="0.15"></rect><circle r="3.75" cx="80" cy="61.53846153846154" fill="hsla(37, 91%, 55%, 1.00)" stroke="none"></circle><rect width="80" height="61.53846153846154" x="160" y="61.53846153846154" opacity="0.15"></rect><circle r="3.75" cx="160" cy="61.53846153846154" fill="hsla(37, 91%, 55%, 1.00)" stroke="none"></circle><rect width="80" height="61.53846153846154" x="240" y="61.53846153846154" opacity="0.15"></rect><circle r="3.75" cx="240" cy="61.53846153846154" fill="hsla(37, 91%, 55%, 1.00)" stroke="none"></circle><rect width="80" height="61.53846153846154" x="320" y="61.53846153846154" opacity="0.15"></rect><circle r="3.75" cx="320" cy="61.53846153846154" fill="hsla(37, 91%, 55%, 1.00)" stroke="none"></circle><rect width="80" height="61.53846153846154" x="400" y="61.53846153846154" opacity="0.15"></rect><circle r="3.75" cx="400" cy="61.53846153846154" fill="hsla(37, 91%, 55%, 1.00)" stroke="none"></circle><rect width="80" height="61.53846153846154" x="480" y="61.53846153846154" opacity="0.15"></rect><circle r="3.75" cx="480" cy="61.53846153846154" fill="hsla(37, 91%, 55%, 1.00)" stroke="none"></circle><rect width="80" height="61.53846153846154" x="560" y="61.53846153846154" opacity="0.15"></rect><circle r="3.75" cx="560" cy="61.53846153846154" fill="hsla(37, 91%, 55%, 1.00)" stroke="none"></circle><rect width="80" height="61.53846153846154" x="640" y="61.53846153846154" opacity="0.15"></rect><circle r="3.75" cx="640" cy="61.53846153846154" fill="hsla(37, 91%, 55%, 1.00)" stroke="none"></circle><rect width="80" height="61.53846153846154" x="720" y="61.53846153846154" opacity="0.15"></rect><circle r="3.75" cx="720" cy="61.53846153846154" fill="hsla(37, 91%, 55%, 1.00)" stroke="none"></circle><rect width="80" height="61.53846153846154" x="800" y="61.53846153846154" opacity="0.15"></rect><circle r="3.75" cx="800" cy="61.53846153846154" fill="hsla(37, 91%, 55%, 1.00)" stroke="none"></circle><rect width="80" height="61.53846153846154" x="0" y="123.07692307692308" opacity="0.15"></rect><circle r="3.75" cx="0" cy="123.07692307692308" fill="hsla(37, 91%, 55%, 1.00)" stroke="none"></circle><rect width="80" height="61.53846153846154" x="80" y="123.07692307692308" opacity="0.15"></rect><circle r="3.75" cx="80" cy="123.07692307692308" fill="hsla(37, 91%, 55%, 1.00)" stroke="none"></circle><rect width="80" height="61.53846153846154" x="160" y="123.07692307692308" opacity="0.15"></rect><circle r="3.75" cx="160" cy="123.07692307692308" fill="hsla(37, 91%, 55%, 1.00)" stroke="none"></circle><rect width="80" height="61.53846153846154" x="240" y="123.07692307692308" opacity="0.15"></rect><circle r="3.75" cx="240" cy="123.07692307692308" fill="hsla(37, 91%, 55%, 1.00)" stroke="none"></circle><rect width="80" height="61.53846153846154" x="320" y="123.07692307692308" opacity="0.15"></rect><circle r="3.75" cx="320" cy="123.07692307692308" fill="hsla(37, 91%, 55%, 1.00)" stroke="none"></circle><rect width="80" height="61.53846153846154" x="400" y="123.07692307692308" opacity="0.15"></rect><circle r="3.75" cx="400" cy="123.07692307692308" fill="hsla(37, 91%, 55%, 1.00)" stroke="none"></circle><rect width="80" height="61.53846153846154" x="480" y="123.07692307692308" opacity="0.15"></rect><circle r="3.75" cx="480" cy="123.07692307692308" fill="hsla(37, 91%, 55%, 1.00)" stroke="none"></circle><rect width="80" height="61.53846153846154" x="560" y="123.07692307692308" opacity="0.15"></rect><circle r="3.75" cx="560" cy="123.07692307692308" fill="hsla(37, 91%, 55%, 1.00)" stroke="none"></circle><rect width="80" height="61.53846153846154" x="640" y="123.07692307692308" opacity="0.15"></rect><circle r="3.75" cx="640" cy="123.07692307692308" fill="hsla(37, 91%, 55%, 1.00)" stroke="none"></circle><rect width="80" height="61.53846153846154" x="720" y="123.07692307692308" opacity="0.15"></rect><circle r="3.75" cx="720" cy="123.07692307692308" fill="hsla(37, 91%, 55%, 1.00)" stroke="none"></circle><rect width="80" height="61.53846153846154" x="800" y="123.07692307692308" opacity="0.15"></rect><circle r="3.75" cx="800" cy="123.07692307692308" fill="hsla(37, 91%, 55%, 1.00)" stroke="none"></circle><rect width="80" height="61.53846153846154" x="0" y="184.6153846153846" opacity="0.15"></rect><circle r="3.75" cx="0" cy="184.6153846153846" fill="hsla(37, 91%, 55%, 1.00)" stroke="none"></circle><rect width="80" height="61.53846153846154" x="80" y="184.6153846153846" opacity="0.15"></rect><circle r="3.75" cx="80" cy="184.6153846153846" fill="hsla(37, 91%, 55%, 1.00)" stroke="none"></circle><rect width="80" height="61.53846153846154" x="160" y="184.6153846153846" opacity="0.15"></rect><circle r="3.75" cx="160" cy="184.6153846153846" fill="hsla(37, 91%, 55%, 1.00)" stroke="none"></circle><rect width="80" height="61.53846153846154" x="240" y="184.6153846153846" opacity="0.15"></rect><circle r="3.75" cx="240" cy="184.6153846153846" fill="hsla(37, 91%, 55%, 1.00)" stroke="none"></circle><rect width="80" height="61.53846153846154" x="320" y="184.6153846153846" opacity="0.15"></rect><circle r="3.75" cx="320" cy="184.6153846153846" fill="hsla(37, 91%, 55%, 1.00)" stroke="none"></circle><rect width="80" height="61.53846153846154" x="400" y="184.6153846153846" opacity="0.15"></rect><circle r="3.75" cx="400" cy="184.6153846153846" fill="hsla(37, 91%, 55%, 1.00)" stroke="none"></circle><rect width="80" height="61.53846153846154" x="480" y="184.6153846153846" opacity="0.15"></rect><circle r="3.75" cx="480" cy="184.6153846153846" fill="hsla(37, 91%, 55%, 1.00)" stroke="none"></circle><rect width="80" height="61.53846153846154" x="560" y="184.6153846153846" opacity="0.15"></rect><circle r="3.75" cx="560" cy="184.6153846153846" fill="hsla(37, 91%, 55%, 1.00)" stroke="none"></circle><rect width="80" height="61.53846153846154" x="640" y="184.6153846153846" opacity="0.15"></rect><circle r="3.75" cx="640" cy="184.6153846153846" fill="hsla(37, 91%, 55%, 1.00)" stroke="none"></circle><rect width="80" height="61.53846153846154" x="720" y="184.6153846153846" opacity="0.15"></rect><circle r="3.75" cx="720" cy="184.6153846153846" fill="hsla(37, 91%, 55%, 1.00)" stroke="none"></circle><rect width="80" height="61.53846153846154" x="800" y="184.6153846153846" opacity="0.15"></rect><circle r="3.75" cx="800" cy="184.6153846153846" fill="hsla(37, 91%, 55%, 1.00)" stroke="none"></circle><rect width="80" height="61.53846153846154" x="0" y="246.15384615384616" opacity="0.15"></rect><circle r="3.75" cx="0" cy="246.15384615384616" fill="hsla(37, 91%, 55%, 1.00)" stroke="none"></circle><rect width="80" height="61.53846153846154" x="80" y="246.15384615384616" opacity="0.15"></rect><circle r="3.75" cx="80" cy="246.15384615384616" fill="hsla(37, 91%, 55%, 1.00)" stroke="none"></circle><rect width="80" height="61.53846153846154" x="160" y="246.15384615384616" opacity="0.15"></rect><circle r="3.75" cx="160" cy="246.15384615384616" fill="hsla(37, 91%, 55%, 1.00)" stroke="none"></circle><rect width="80" height="61.53846153846154" x="240" y="246.15384615384616" opacity="0.15"></rect><circle r="3.75" cx="240" cy="246.15384615384616" fill="hsla(37, 91%, 55%, 1.00)" stroke="none"></circle><rect width="80" height="61.53846153846154" x="320" y="246.15384615384616" opacity="0.15"></rect><circle r="3.75" cx="320" cy="246.15384615384616" fill="hsla(37, 91%, 55%, 1.00)" stroke="none"></circle><rect width="80" height="61.53846153846154" x="400" y="246.15384615384616" opacity="0.15"></rect><circle r="3.75" cx="400" cy="246.15384615384616" fill="hsla(37, 91%, 55%, 1.00)" stroke="none"></circle><rect width="80" height="61.53846153846154" x="480" y="246.15384615384616" opacity="0.15"></rect><circle r="3.75" cx="480" cy="246.15384615384616" fill="hsla(37, 91%, 55%, 1.00)" stroke="none"></circle><rect width="80" height="61.53846153846154" x="560" y="246.15384615384616" opacity="0.15"></rect><circle r="3.75" cx="560" cy="246.15384615384616" fill="hsla(37, 91%, 55%, 1.00)" stroke="none"></circle><rect width="80" height="61.53846153846154" x="640" y="246.15384615384616" opacity="0.15"></rect><circle r="3.75" cx="640" cy="246.15384615384616" fill="hsla(37, 91%, 55%, 1.00)" stroke="none"></circle><rect width="80" height="61.53846153846154" x="720" y="246.15384615384616" opacity="0.15"></rect><circle r="3.75" cx="720" cy="246.15384615384616" fill="hsla(37, 91%, 55%, 1.00)" stroke="none"></circle><rect width="80" height="61.53846153846154" x="800" y="246.15384615384616" opacity="0.15"></rect><circle r="3.75" cx="800" cy="246.15384615384616" fill="hsla(37, 91%, 55%, 1.00)" stroke="none"></circle><rect width="80" height="61.53846153846154" x="0" y="307.6923076923077" opacity="0.15"></rect><circle r="3.75" cx="0" cy="307.6923076923077" fill="hsla(37, 91%, 55%, 1.00)" stroke="none"></circle><rect width="80" height="61.53846153846154" x="80" y="307.6923076923077" opacity="0.15"></rect><circle r="3.75" cx="80" cy="307.6923076923077" fill="hsla(37, 91%, 55%, 1.00)" stroke="none"></circle><rect width="80" height="61.53846153846154" x="160" y="307.6923076923077" opacity="0.15"></rect><circle r="3.75" cx="160" cy="307.6923076923077" fill="hsla(37, 91%, 55%, 1.00)" stroke="none"></circle><rect width="80" height="61.53846153846154" x="240" y="307.6923076923077" opacity="0.15"></rect><circle r="3.75" cx="240" cy="307.6923076923077" fill="hsla(37, 91%, 55%, 1.00)" stroke="none"></circle><rect width="80" height="61.53846153846154" x="320" y="307.6923076923077" opacity="0.15"></rect><circle r="3.75" cx="320" cy="307.6923076923077" fill="hsla(37, 91%, 55%, 1.00)" stroke="none"></circle><rect width="80" height="61.53846153846154" x="400" y="307.6923076923077" opacity="0.15"></rect><circle r="3.75" cx="400" cy="307.6923076923077" fill="hsla(37, 91%, 55%, 1.00)" stroke="none"></circle><rect width="80" height="61.53846153846154" x="480" y="307.6923076923077" opacity="0.15"></rect><circle r="3.75" cx="480" cy="307.6923076923077" fill="hsla(37, 91%, 55%, 1.00)" stroke="none"></circle><rect width="80" height="61.53846153846154" x="560" y="307.6923076923077" opacity="0.15"></rect><circle r="3.75" cx="560" cy="307.6923076923077" fill="hsla(37, 91%, 55%, 1.00)" stroke="none"></circle><rect width="80" height="61.53846153846154" x="640" y="307.6923076923077" opacity="0.15"></rect><circle r="3.75" cx="640" cy="307.6923076923077" fill="hsla(37, 91%, 55%, 1.00)" stroke="none"></circle><rect width="80" height="61.53846153846154" x="720" y="307.6923076923077" opacity="0.15"></rect><circle r="3.75" cx="720" cy="307.6923076923077" fill="hsla(37, 91%, 55%, 1.00)" stroke="none"></circle><rect width="80" height="61.53846153846154" x="800" y="307.6923076923077" opacity="0.15"></rect><circle r="3.75" cx="800" cy="307.6923076923077" fill="hsla(37, 91%, 55%, 1.00)" stroke="none"></circle><rect width="80" height="61.53846153846154" x="0" y="369.2307692307692" opacity="0.15"></rect><circle r="3.75" cx="0" cy="369.2307692307692" fill="hsla(37, 91%, 55%, 1.00)" stroke="none"></circle><rect width="80" height="61.53846153846154" x="80" y="369.2307692307692" opacity="0.15"></rect><circle r="3.75" cx="80" cy="369.2307692307692" fill="hsla(37, 91%, 55%, 1.00)" stroke="none"></circle><rect width="80" height="61.53846153846154" x="160" y="369.2307692307692" opacity="0.15"></rect><circle r="3.75" cx="160" cy="369.2307692307692" fill="hsla(37, 91%, 55%, 1.00)" stroke="none"></circle><rect width="80" height="61.53846153846154" x="240" y="369.2307692307692" opacity="0.15"></rect><circle r="3.75" cx="240" cy="369.2307692307692" fill="hsla(37, 91%, 55%, 1.00)" stroke="none"></circle><rect width="80" height="61.53846153846154" x="320" y="369.2307692307692" opacity="0.15"></rect><circle r="3.75" cx="320" cy="369.2307692307692" fill="hsla(37, 91%, 55%, 1.00)" stroke="none"></circle><rect width="80" height="61.53846153846154" x="400" y="369.2307692307692" opacity="0.15"></rect><circle r="3.75" cx="400" cy="369.2307692307692" fill="hsla(37, 91%, 55%, 1.00)" stroke="none"></circle><rect width="80" height="61.53846153846154" x="480" y="369.2307692307692" opacity="0.15"></rect><circle r="3.75" cx="480" cy="369.2307692307692" fill="hsla(37, 91%, 55%, 1.00)" stroke="none"></circle><rect width="80" height="61.53846153846154" x="560" y="369.2307692307692" opacity="0.15"></rect><circle r="3.75" cx="560" cy="369.2307692307692" fill="hsla(37, 91%, 55%, 1.00)" stroke="none"></circle><rect width="80" height="61.53846153846154" x="640" y="369.2307692307692" opacity="0.15"></rect><circle r="3.75" cx="640" cy="369.2307692307692" fill="hsla(37, 91%, 55%, 1.00)" stroke="none"></circle><rect width="80" height="61.53846153846154" x="720" y="369.2307692307692" opacity="0.15"></rect><circle r="3.75" cx="720" cy="369.2307692307692" fill="hsla(37, 91%, 55%, 1.00)" stroke="none"></circle><rect width="80" height="61.53846153846154" x="800" y="369.2307692307692" opacity="0.15"></rect><circle r="3.75" cx="800" cy="369.2307692307692" fill="hsla(37, 91%, 55%, 1.00)" stroke="none"></circle><rect width="80" height="61.53846153846154" x="0" y="430.7692307692308" opacity="0.15"></rect><circle r="3.75" cx="0" cy="430.7692307692308" fill="hsla(37, 91%, 55%, 1.00)" stroke="none"></circle><rect width="80" height="61.53846153846154" x="80" y="430.7692307692308" opacity="0.15"></rect><circle r="3.75" cx="80" cy="430.7692307692308" fill="hsla(37, 91%, 55%, 1.00)" stroke="none"></circle><rect width="80" height="61.53846153846154" x="160" y="430.7692307692308" opacity="0.15"></rect><circle r="3.75" cx="160" cy="430.7692307692308" fill="hsla(37, 91%, 55%, 1.00)" stroke="none"></circle><rect width="80" height="61.53846153846154" x="240" y="430.7692307692308" opacity="0.15"></rect><circle r="3.75" cx="240" cy="430.7692307692308" fill="hsla(37, 91%, 55%, 1.00)" stroke="none"></circle><rect width="80" height="61.53846153846154" x="320" y="430.7692307692308" opacity="0.15"></rect><circle r="3.75" cx="320" cy="430.7692307692308" fill="hsla(37, 91%, 55%, 1.00)" stroke="none"></circle><rect width="80" height="61.53846153846154" x="400" y="430.7692307692308" opacity="0.15"></rect><circle r="3.75" cx="400" cy="430.7692307692308" fill="hsla(37, 91%, 55%, 1.00)" stroke="none"></circle><rect width="80" height="61.53846153846154" x="480" y="430.7692307692308" opacity="0.15"></rect><circle r="3.75" cx="480" cy="430.7692307692308" fill="hsla(37, 91%, 55%, 1.00)" stroke="none"></circle><rect width="80" height="61.53846153846154" x="560" y="430.7692307692308" opacity="0.15"></rect><circle r="3.75" cx="560" cy="430.7692307692308" fill="hsla(37, 91%, 55%, 1.00)" stroke="none"></circle><rect width="80" height="61.53846153846154" x="640" y="430.7692307692308" opacity="0.15"></rect><circle r="3.75" cx="640" cy="430.7692307692308" fill="hsla(37, 91%, 55%, 1.00)" stroke="none"></circle><rect width="80" height="61.53846153846154" x="720" y="430.7692307692308" opacity="0.15"></rect><circle r="3.75" cx="720" cy="430.7692307692308" fill="hsla(37, 91%, 55%, 1.00)" stroke="none"></circle><rect width="80" height="61.53846153846154" x="800" y="430.7692307692308" opacity="0.15"></rect><circle r="3.75" cx="800" cy="430.7692307692308" fill="hsla(37, 91%, 55%, 1.00)" stroke="none"></circle><rect width="80" height="61.53846153846154" x="0" y="492.3076923076923" opacity="0.15"></rect><circle r="3.75" cx="0" cy="492.3076923076923" fill="hsla(37, 91%, 55%, 1.00)" stroke="none"></circle><rect width="80" height="61.53846153846154" x="80" y="492.3076923076923" opacity="0.15"></rect><circle r="3.75" cx="80" cy="492.3076923076923" fill="hsla(37, 91%, 55%, 1.00)" stroke="none"></circle><rect width="80" height="61.53846153846154" x="160" y="492.3076923076923" opacity="0.15"></rect><circle r="3.75" cx="160" cy="492.3076923076923" fill="hsla(37, 91%, 55%, 1.00)" stroke="none"></circle><rect width="80" height="61.53846153846154" x="240" y="492.3076923076923" opacity="0.15"></rect><circle r="3.75" cx="240" cy="492.3076923076923" fill="hsla(37, 91%, 55%, 1.00)" stroke="none"></circle><rect width="80" height="61.53846153846154" x="320" y="492.3076923076923" opacity="0.15"></rect><circle r="3.75" cx="320" cy="492.3076923076923" fill="hsla(37, 91%, 55%, 1.00)" stroke="none"></circle><rect width="80" height="61.53846153846154" x="400" y="492.3076923076923" opacity="0.15"></rect><circle r="3.75" cx="400" cy="492.3076923076923" fill="hsla(37, 91%, 55%, 1.00)" stroke="none"></circle><rect width="80" height="61.53846153846154" x="480" y="492.3076923076923" opacity="0.15"></rect><circle r="3.75" cx="480" cy="492.3076923076923" fill="hsla(37, 91%, 55%, 1.00)" stroke="none"></circle><rect width="80" height="61.53846153846154" x="560" y="492.3076923076923" opacity="0.15"></rect><circle r="3.75" cx="560" cy="492.3076923076923" fill="hsla(37, 91%, 55%, 1.00)" stroke="none"></circle><rect width="80" height="61.53846153846154" x="640" y="492.3076923076923" opacity="0.15"></rect><circle r="3.75" cx="640" cy="492.3076923076923" fill="hsla(37, 91%, 55%, 1.00)" stroke="none"></circle><rect width="80" height="61.53846153846154" x="720" y="492.3076923076923" opacity="0.15"></rect><circle r="3.75" cx="720" cy="492.3076923076923" fill="hsla(37, 91%, 55%, 1.00)" stroke="none"></circle><rect width="80" height="61.53846153846154" x="800" y="492.3076923076923" opacity="0.15"></rect><circle r="3.75" cx="800" cy="492.3076923076923" fill="hsla(37, 91%, 55%, 1.00)" stroke="none"></circle><rect width="80" height="61.53846153846154" x="0" y="553.8461538461538" opacity="0.15"></rect><circle r="3.75" cx="0" cy="553.8461538461538" fill="hsla(37, 91%, 55%, 1.00)" stroke="none"></circle><rect width="80" height="61.53846153846154" x="80" y="553.8461538461538" opacity="0.15"></rect><circle r="3.75" cx="80" cy="553.8461538461538" fill="hsla(37, 91%, 55%, 1.00)" stroke="none"></circle><rect width="80" height="61.53846153846154" x="160" y="553.8461538461538" opacity="0.15"></rect><circle r="3.75" cx="160" cy="553.8461538461538" fill="hsla(37, 91%, 55%, 1.00)" stroke="none"></circle><rect width="80" height="61.53846153846154" x="240" y="553.8461538461538" opacity="0.15"></rect><circle r="3.75" cx="240" cy="553.8461538461538" fill="hsla(37, 91%, 55%, 1.00)" stroke="none"></circle><rect width="80" height="61.53846153846154" x="320" y="553.8461538461538" opacity="0.15"></rect><circle r="3.75" cx="320" cy="553.8461538461538" fill="hsla(37, 91%, 55%, 1.00)" stroke="none"></circle><rect width="80" height="61.53846153846154" x="400" y="553.8461538461538" opacity="0.15"></rect><circle r="3.75" cx="400" cy="553.8461538461538" fill="hsla(37, 91%, 55%, 1.00)" stroke="none"></circle><rect width="80" height="61.53846153846154" x="480" y="553.8461538461538" opacity="0.15"></rect><circle r="3.75" cx="480" cy="553.8461538461538" fill="hsla(37, 91%, 55%, 1.00)" stroke="none"></circle><rect width="80" height="61.53846153846154" x="560" y="553.8461538461538" opacity="0.15"></rect><circle r="3.75" cx="560" cy="553.8461538461538" fill="hsla(37, 91%, 55%, 1.00)" stroke="none"></circle><rect width="80" height="61.53846153846154" x="640" y="553.8461538461538" opacity="0.15"></rect><circle r="3.75" cx="640" cy="553.8461538461538" fill="hsla(37, 91%, 55%, 1.00)" stroke="none"></circle><rect width="80" height="61.53846153846154" x="720" y="553.8461538461538" opacity="0.15"></rect><circle r="3.75" cx="720" cy="553.8461538461538" fill="hsla(37, 91%, 55%, 1.00)" stroke="none"></circle><rect width="80" height="61.53846153846154" x="800" y="553.8461538461538" opacity="0.15"></rect><circle r="3.75" cx="800" cy="553.8461538461538" fill="hsla(37, 91%, 55%, 1.00)" stroke="none"></circle><rect width="80" height="61.53846153846154" x="0" y="615.3846153846154" opacity="0.15"></rect><circle r="3.75" cx="0" cy="615.3846153846154" fill="hsla(37, 91%, 55%, 1.00)" stroke="none"></circle><rect width="80" height="61.53846153846154" x="80" y="615.3846153846154" opacity="0.15"></rect><circle r="3.75" cx="80" cy="615.3846153846154" fill="hsla(37, 91%, 55%, 1.00)" stroke="none"></circle><rect width="80" height="61.53846153846154" x="160" y="615.3846153846154" opacity="0.15"></rect><circle r="3.75" cx="160" cy="615.3846153846154" fill="hsla(37, 91%, 55%, 1.00)" stroke="none"></circle><rect width="80" height="61.53846153846154" x="240" y="615.3846153846154" opacity="0.15"></rect><circle r="3.75" cx="240" cy="615.3846153846154" fill="hsla(37, 91%, 55%, 1.00)" stroke="none"></circle><rect width="80" height="61.53846153846154" x="320" y="615.3846153846154" opacity="0.15"></rect><circle r="3.75" cx="320" cy="615.3846153846154" fill="hsla(37, 91%, 55%, 1.00)" stroke="none"></circle><rect width="80" height="61.53846153846154" x="400" y="615.3846153846154" opacity="0.15"></rect><circle r="3.75" cx="400" cy="615.3846153846154" fill="hsla(37, 91%, 55%, 1.00)" stroke="none"></circle><rect width="80" height="61.53846153846154" x="480" y="615.3846153846154" opacity="0.15"></rect><circle r="3.75" cx="480" cy="615.3846153846154" fill="hsla(37, 91%, 55%, 1.00)" stroke="none"></circle><rect width="80" height="61.53846153846154" x="560" y="615.3846153846154" opacity="0.15"></rect><circle r="3.75" cx="560" cy="615.3846153846154" fill="hsla(37, 91%, 55%, 1.00)" stroke="none"></circle><rect width="80" height="61.53846153846154" x="640" y="615.3846153846154" opacity="0.15"></rect><circle r="3.75" cx="640" cy="615.3846153846154" fill="hsla(37, 91%, 55%, 1.00)" stroke="none"></circle><rect width="80" height="61.53846153846154" x="720" y="615.3846153846154" opacity="0.15"></rect><circle r="3.75" cx="720" cy="615.3846153846154" fill="hsla(37, 91%, 55%, 1.00)" stroke="none"></circle><rect width="80" height="61.53846153846154" x="800" y="615.3846153846154" opacity="0.15"></rect><circle r="3.75" cx="800" cy="615.3846153846154" fill="hsla(37, 91%, 55%, 1.00)" stroke="none"></circle><rect width="80" height="61.53846153846154" x="0" y="676.9230769230769" opacity="0.15"></rect><circle r="3.75" cx="0" cy="676.9230769230769" fill="hsla(37, 91%, 55%, 1.00)" stroke="none"></circle><rect width="80" height="61.53846153846154" x="80" y="676.9230769230769" opacity="0.15"></rect><circle r="3.75" cx="80" cy="676.9230769230769" fill="hsla(37, 91%, 55%, 1.00)" stroke="none"></circle><rect width="80" height="61.53846153846154" x="160" y="676.9230769230769" opacity="0.15"></rect><circle r="3.75" cx="160" cy="676.9230769230769" fill="hsla(37, 91%, 55%, 1.00)" stroke="none"></circle><rect width="80" height="61.53846153846154" x="240" y="676.9230769230769" opacity="0.15"></rect><circle r="3.75" cx="240" cy="676.9230769230769" fill="hsla(37, 91%, 55%, 1.00)" stroke="none"></circle><rect width="80" height="61.53846153846154" x="320" y="676.9230769230769" opacity="0.15"></rect><circle r="3.75" cx="320" cy="676.9230769230769" fill="hsla(37, 91%, 55%, 1.00)" stroke="none"></circle><rect width="80" height="61.53846153846154" x="400" y="676.9230769230769" opacity="0.15"></rect><circle r="3.75" cx="400" cy="676.9230769230769" fill="hsla(37, 91%, 55%, 1.00)" stroke="none"></circle><rect width="80" height="61.53846153846154" x="480" y="676.9230769230769" opacity="0.15"></rect><circle r="3.75" cx="480" cy="676.9230769230769" fill="hsla(37, 91%, 55%, 1.00)" stroke="none"></circle><rect width="80" height="61.53846153846154" x="560" y="676.9230769230769" opacity="0.15"></rect><circle r="3.75" cx="560" cy="676.9230769230769" fill="hsla(37, 91%, 55%, 1.00)" stroke="none"></circle><rect width="80" height="61.53846153846154" x="640" y="676.9230769230769" opacity="0.15"></rect><circle r="3.75" cx="640" cy="676.9230769230769" fill="hsla(37, 91%, 55%, 1.00)" stroke="none"></circle><rect width="80" height="61.53846153846154" x="720" y="676.9230769230769" opacity="0.15"></rect><circle r="3.75" cx="720" cy="676.9230769230769" fill="hsla(37, 91%, 55%, 1.00)" stroke="none"></circle><rect width="80" height="61.53846153846154" x="800" y="676.9230769230769" opacity="0.15"></rect><circle r="3.75" cx="800" cy="676.9230769230769" fill="hsla(37, 91%, 55%, 1.00)" stroke="none"></circle><rect width="80" height="61.53846153846154" x="0" y="738.4615384615385" opacity="0.15"></rect><circle r="3.75" cx="0" cy="738.4615384615385" fill="hsla(37, 91%, 55%, 1.00)" stroke="none"></circle><rect width="80" height="61.53846153846154" x="80" y="738.4615384615385" opacity="0.15"></rect><circle r="3.75" cx="80" cy="738.4615384615385" fill="hsla(37, 91%, 55%, 1.00)" stroke="none"></circle><rect width="80" height="61.53846153846154" x="160" y="738.4615384615385" opacity="0.15"></rect><circle r="3.75" cx="160" cy="738.4615384615385" fill="hsla(37, 91%, 55%, 1.00)" stroke="none"></circle><rect width="80" height="61.53846153846154" x="240" y="738.4615384615385" opacity="0.15"></rect><circle r="3.75" cx="240" cy="738.4615384615385" fill="hsla(37, 91%, 55%, 1.00)" stroke="none"></circle><rect width="80" height="61.53846153846154" x="320" y="738.4615384615385" opacity="0.15"></rect><circle r="3.75" cx="320" cy="738.4615384615385" fill="hsla(37, 91%, 55%, 1.00)" stroke="none"></circle><rect width="80" height="61.53846153846154" x="400" y="738.4615384615385" opacity="0.15"></rect><circle r="3.75" cx="400" cy="738.4615384615385" fill="hsla(37, 91%, 55%, 1.00)" stroke="none"></circle><rect width="80" height="61.53846153846154" x="480" y="738.4615384615385" opacity="0.15"></rect><circle r="3.75" cx="480" cy="738.4615384615385" fill="hsla(37, 91%, 55%, 1.00)" stroke="none"></circle><rect width="80" height="61.53846153846154" x="560" y="738.4615384615385" opacity="0.15"></rect><circle r="3.75" cx="560" cy="738.4615384615385" fill="hsla(37, 91%, 55%, 1.00)" stroke="none"></circle><rect width="80" height="61.53846153846154" x="640" y="738.4615384615385" opacity="0.15"></rect><circle r="3.75" cx="640" cy="738.4615384615385" fill="hsla(37, 91%, 55%, 1.00)" stroke="none"></circle><rect width="80" height="61.53846153846154" x="720" y="738.4615384615385" opacity="0.15"></rect><circle r="3.75" cx="720" cy="738.4615384615385" fill="hsla(37, 91%, 55%, 1.00)" stroke="none"></circle><rect width="80" height="61.53846153846154" x="800" y="738.4615384615385" opacity="0.15"></rect><circle r="3.75" cx="800" cy="738.4615384615385" fill="hsla(37, 91%, 55%, 1.00)" stroke="none"></circle><rect width="80" height="61.53846153846154" x="0" y="800" opacity="0.15"></rect><circle r="3.75" cx="0" cy="800" fill="hsla(37, 91%, 55%, 1.00)" stroke="none"></circle><rect width="80" height="61.53846153846154" x="80" y="800" opacity="0.15"></rect><circle r="3.75" cx="80" cy="800" fill="hsla(37, 91%, 55%, 1.00)" stroke="none"></circle><rect width="80" height="61.53846153846154" x="160" y="800" opacity="0.15"></rect><circle r="3.75" cx="160" cy="800" fill="hsla(37, 91%, 55%, 1.00)" stroke="none"></circle><rect width="80" height="61.53846153846154" x="240" y="800" opacity="0.15"></rect><circle r="3.75" cx="240" cy="800" fill="hsla(37, 91%, 55%, 1.00)" stroke="none"></circle><rect width="80" height="61.53846153846154" x="320" y="800" opacity="0.15"></rect><circle r="3.75" cx="320" cy="800" fill="hsla(37, 91%, 55%, 1.00)" stroke="none"></circle><rect width="80" height="61.53846153846154" x="400" y="800" opacity="0.15"></rect><circle r="3.75" cx="400" cy="800" fill="hsla(37, 91%, 55%, 1.00)" stroke="none"></circle><rect width="80" height="61.53846153846154" x="480" y="800" opacity="0.15"></rect><circle r="3.75" cx="480" cy="800" fill="hsla(37, 91%, 55%, 1.00)" stroke="none"></circle><rect width="80" height="61.53846153846154" x="560" y="800" opacity="0.15"></rect><circle r="3.75" cx="560" cy="800" fill="hsla(37, 91%, 55%, 1.00)" stroke="none"></circle><rect width="80" height="61.53846153846154" x="640" y="800" opacity="0.15"></rect><circle r="3.75" cx="640" cy="800" fill="hsla(37, 91%, 55%, 1.00)" stroke="none"></circle><rect width="80" height="61.53846153846154" x="720" y="800" opacity="0.15"></rect><circle r="3.75" cx="720" cy="800" fill="hsla(37, 91%, 55%, 1.00)" stroke="none"></circle><rect width="80" height="61.53846153846154" x="800" y="800" opacity="0.15"></rect><circle r="3.75" cx="800" cy="800" fill="hsla(37, 91%, 55%, 1.00)" stroke="none"></circle></g></svg>